<?xml version="1.0" encoding="utf-8"?>
<!-- Generator: Adobe Illustrator 23.0.2, SVG Export Plug-In . SVG Version: 6.00 Build 0)  -->
<svg version="1.1" id="Layer_1" xmlns="http://www.w3.org/2000/svg" xmlns:xlink="http://www.w3.org/1999/xlink" x="0px" y="0px"
	 viewBox="0 0 300 300" style="enable-background:new 0 0 300 300;" xml:space="preserve">
<g>
	<g>
		<g>
			<path d="M139.4,96.2c-22.7,0-41.1,18.4-41.1,41.1c0,22.7,18.4,41.1,41.1,41.1c22.7,0,41.1-18.4,41.1-41.1
				C180.5,114.6,162.1,96.2,139.4,96.2z M159.3,147h-12.1V159c0,4.3-3.5,7.8-7.8,7.8s-7.8-3.5-7.8-7.8V147h-12.1
				c-4.3,0-7.8-3.5-7.8-7.8s3.5-7.8,7.8-7.8h12.1v-12.1c0-4.3,3.5-7.8,7.8-7.8s7.8,3.5,7.8,7.8v12.1h12.1c4.3,0,7.8,3.5,7.8,7.8
				C167,143.5,163.6,147,159.3,147z"/>
			<path d="M150,0C67.2,0,0,67.2,0,150s67.2,150,150,150s150-67.2,150-150S232.8,0,150,0z M225.4,221.3c-2.4,2.4-5.5,3.6-8.6,3.6
				s-6.2-1.2-8.6-3.6l-34.1-34.1c-9.8,6.9-21.8,10.9-34.7,10.9c-33.5,0-60.7-27.2-60.7-60.7s27.2-60.7,60.7-60.7
				s60.7,27.2,60.7,60.7c0,11.9-3.4,22.9-9.3,32.3l34.6,34.6C230.2,208.8,230.2,216.5,225.4,221.3z"/>
		</g>
	</g>
</g>
</svg>
