<?xml version="1.0" encoding="utf-8"?>
<!-- Generator: Adobe Illustrator 23.0.2, SVG Export Plug-In . SVG Version: 6.00 Build 0)  -->
<svg version="1.1" id="Capa_1" xmlns="http://www.w3.org/2000/svg" xmlns:xlink="http://www.w3.org/1999/xlink" x="0px" y="0px"
	 viewBox="0 0 480 480" style="enable-background:new 0 0 480 480;" xml:space="preserve">
<g>
	<g>
		<path style="fill:#6fa918"   d="M472,264h-80c-4.4,0-8,3.6-8,8v8h-62.3c-7.9,0-15.6,2.3-22.2,6.7L237.6,328h-63.8c-11.3,0-21.9,5.6-28.2,15.1
			c-5.4,8.1-6.9,17.9-4.6,27.1l-98.6-30.8c-6.6-2.5-14-2.6-21.2-0.2C8.6,343.4,0,355.2,0,368.7c0,12.5,7.5,23.8,19,28.7l174.5,73.8
			c13.9,5.9,28.6,8.8,43.6,8.8h2c12,0,24-1.9,35.6-5.8L384,435.3V448c0,4.4,3.6,8,8,8h80c4.4,0,8-3.6,8-8V272
			C480,267.6,476.4,264,472,264z M384,418.4l-114.5,40.7c-9.8,3.3-20,4.9-30.4,4.9h-2c-12.9,0-25.5-2.6-37.4-7.6L25.2,382.6
			c-5.6-2.4-9.2-7.8-9.2-13.9c0-6.5,4.2-12.3,10.8-14.5c3.3-1.1,6.9-1,10.5,0.3l115.2,36c0.1,0.1,0.2,0.2,0.4,0.3
			c3,2.8,6.5,5.1,10.3,6.6c0.2,0.1,0.3,0.1,0.5,0.2c1.7,0.6,3.4,1.1,5.1,1.5c0.4,0.1,0.8,0.2,1.2,0.3c1.9,0.3,3.9,0.6,5.9,0.6h120
			v-16H176c-1.5,0-3-0.3-4.4-0.6c-0.5-0.1-1-0.3-1.5-0.5c-0.9-0.3-1.7-0.7-2.5-1.1c-0.5-0.3-1-0.5-1.5-0.9c-0.9-0.6-1.8-1.3-2.5-2.1
			c-0.2-0.2-0.5-0.4-0.8-0.7c-1.1-1.2-2-2.5-2.7-4l-2.2-4.3c-2.9-5.7-2.4-12.6,1.1-17.9c3.3-5,8.9-8,14.8-8H240
			c1.6,0,3.1-0.5,4.4-1.3l63.9-42.6c3.9-2.6,8.5-4,13.3-4H384V418.4z M464,440h-64V280h64V440z"/>
	</g>
</g>
<g>
	<g>
		<path style="fill:#6fa918"  d="M416,152c-17.6,0-32,14.4-32,32s14.4,32,32,32s32-14.4,32-32S433.6,152,416,152z M416,200c-8.8,0-16-7.2-16-16
			s7.2-16,16-16s16,7.2,16,16S424.8,200,416,200z"/>
	</g>
</g>
<g>
	<g>
		<path style="fill:#6fa918"  d="M304,40c-17.6,0-32,14.4-32,32s14.4,32,32,32s32-14.4,32-32S321.6,40,304,40z M304,88c-8.8,0-16-7.2-16-16s7.2-16,16-16
			s16,7.2,16,16S312.8,88,304,88z"/>
	</g>
</g>
<g>
	<g>
		<rect style="fill:#6fa918"  x="246.9" y="120" transform="matrix(0.7071 -0.7071 0.7071 0.7071 14.917 292.0397)" width="226.2" height="16"/>
	</g>
</g>
<g>
	<g>
		<path style="fill:#6fa918"  d="M128,0C57.4,0,0,57.4,0,128s57.4,128,128,128s128-57.4,128-128S198.6,0,128,0z M128,240c-61.8,0-112-50.2-112-112
			S66.2,16,128,16s112,50.2,112,112S189.8,240,128,240z"/>
	</g>
</g>
<g>
	<g>
		<path style="fill:#6fa918"  d="M173,153.8l-37-29.6v-59c13.8,3.6,24,16,24,30.9h16c0-23.7-17.3-43.4-40-47.3V32h-16v16.7C97.3,52.5,80,72.3,80,96
			c0,2.4,1.1,4.7,3,6.2l37,29.6v59c-13.8-3.6-24-16-24-30.9H80c0,23.7,17.3,43.4,40,47.3V224h16v-16.7c22.7-3.8,40-23.5,40-47.3
			C176,157.6,174.9,155.3,173,153.8z M120,111.4l-23.8-19c1.5-13.2,11.2-23.9,23.8-27.2V111.4z M136,190.9v-46.2l23.8,19
			C158.3,176.9,148.6,187.6,136,190.9z"/>
	</g>
</g>
<g>
	<g>
		<rect style="fill:#6fa918"  x="32" y="248" width="16" height="16"/>
	</g>
</g>
<g>
	<g>
		<rect style="fill:#6fa918"  x="32" y="280" width="16" height="32"/>
	</g>
</g>
<g>
	<g>
		<rect style="fill:#6fa918"  x="208" y="248" width="16" height="16"/>
	</g>
</g>
<g>
	<g>
		<rect style="fill:#6fa918"  x="208" y="280" width="16" height="32"/>
	</g>
</g>
<g>
	<g>
		<rect style="fill:#6fa918"  x="120" y="272" width="16" height="16"/>
	</g>
</g>
<g>
	<g>
		<rect style="fill:#6fa918"  x="120" y="304" width="16" height="24"/>
	</g>
</g>
</svg>
